<svg width="497" height="497" viewBox="0 0 497 497" fill="none" xmlns="http://www.w3.org/2000/svg">
<path d="M496.2 248.1C496.2 111.1 385.1 0 248.1 0C111.1 0 0 111.1 0 248.1C0 385.1 111.1 496.2 248.1 496.2C385.1 496.2 496.2 385.1 496.2 248.1Z" fill="#EEC700"/>
<path d="M404.97 206.026C400.834 201.745 396.316 199.233 392.224 197.756C397.835 165.121 396.803 146.886 264.066 105.099C128.979 62.5715 113.867 80.1966 102.74 115.54L100.843 121.568C97.8322 131.132 103.145 141.326 112.709 144.338L156.046 157.981C165.611 160.991 175.805 155.679 178.816 146.115L180.713 140.087C189.332 112.708 231.517 125.067 255.412 132.59C279.307 140.112 320.963 154.148 312.345 181.526L310.446 187.554C307.436 197.118 312.748 207.312 322.312 210.324L365.65 223.967C375.214 226.978 385.408 221.666 388.419 212.102L389.65 207.925C392.213 208.983 394.965 210.6 397.508 213.233C406.629 222.68 409.656 240.932 406.259 266.019C400.37 309.488 383.288 325.014 365.096 330.181V322.619C365.096 314.942 363.177 307.343 359.286 300.703C341.131 269.632 315.35 242.062 282.593 217.76V199.397C282.593 197.97 281.426 196.803 279.999 196.803H253.052C251.599 196.803 250.458 197.97 250.458 199.397V217.655H219.697V199.397C219.697 197.97 218.53 196.803 217.104 196.803H190.131C188.704 196.803 187.537 197.97 187.537 199.397V217.655C154.728 242.01 128.922 269.579 110.74 300.703C106.85 307.342 104.931 314.941 104.931 322.618V339.71C104.931 364.064 124.668 383.801 149.022 383.801H321.004C344.976 383.801 364.433 364.667 365.038 340.841C394.196 334.012 410.737 310.221 416.537 267.412C420.432 238.659 416.539 218.006 404.97 206.026ZM280.067 323.072L262.762 316.911C264.598 313.211 265.656 309.057 265.656 304.645C265.656 289.394 253.285 277.023 238.009 277.023C222.758 277.023 210.361 289.395 210.361 304.645C210.361 319.921 222.758 332.293 238.009 332.293C243.657 332.293 248.902 330.594 253.278 327.69L262.769 343.292C255.619 347.882 247.136 350.578 238.009 350.578C212.643 350.578 192.102 330.011 192.102 304.645C192.102 279.306 212.644 258.739 238.009 258.739C263.374 258.739 283.942 279.306 283.942 304.645C283.942 311.203 282.544 317.428 280.067 323.072Z" fill="black"/>
</svg>
